<svg xmlns="http://www.w3.org/2000/svg" viewBox="0 0 731.44 122.7"><defs><style>.cls-1{fill:#fff;}</style></defs><g id="Layer_2" data-name="Layer 2"><g id="レイヤー_1のコピー" data-name="レイヤー 1のコピー"><polygon class="cls-1" points="605.61 107.11 606.65 107.11 605.61 107.1 605.61 107.11"/><path class="cls-1" d="M444.89,82.86h-.19C444.72,83.07,444.86,83,444.89,82.86Z"/><path class="cls-1" d="M562.05,77a.9.9,0,0,0,.44-.44c.3-.08.3.31,0,.22,0,.64.74,1.62.22,2l.2,0v28.37h5.9c.18-.34.64-.45,1.62-.51,0,.45.77.28,1.11.44v.07h.66a.16.16,0,0,0,0-.07l.23.07,6.73.09c.54,0,1.33.12,1.16-.55h1.17c.28-.4.3,0,.47.24a.34.34,0,0,0,.46-.24l.47.24c0-.23,0-.26.23-.24,0,.21-.13.56.24.47l0,.08h.51c0-.09.15-.09.45-.08v.08l20.31,0-8.34-8.33H578.89l0-26.44s.5,0,.5-.39-.46-.39-.46-1.09.08-5.49.08-5.49a.63.63,0,0,1,.64.67c0,.68,0,5.6,0,5.6h25.13l-9.21-9.57-16.7,0,0-23.32H601.5c.42.13,0-.27.36.21a2.77,2.77,0,0,1,1.32,1.11c.64,0,.35-.28.37.44.68.59.88.46,1.33,1.29.17.13.44,1,.73.91V70.06L607,71.42h-1.35v19.2c.25.61.27,1.66.81,1.82L606,93.77a1.79,1.79,0,0,1-.37.11v12.18l1,1h14.66V55.26l12.47,12.37c-.6,0-.66,0-.87.53.06.47.25.27.22.66a4.75,4.75,0,0,1,1.93.08l3.82,3.78v-.32l1.42,2c0-.25,0-.38.13-.43.25.26.68.88.93,1.12.08.08.46.53.57.51s.13-.34.08-.51c.12.2.34.63.35.63.24,1.05.7.56.95,1.62h.38v.44h.38c.14.6,0,.49.57.66v.44H645c.43.31-.18.59.39.78v.26c.17,0,.2,0,.21-.06s0,.07,0,.15h.23v.26c.53.19.44.77,1,.92l.34.3a.31.31,0,0,1,.22.39c.26,0,.14.33.45.37,0,.52.63.7.9,1.05v.15c.36.11.55.62.79.87.06.21.13.41.33.37,0,.92-.67-.34-1.23-.28v-.26c-.39-.11-.64-.51-.9-.79-.1-.53-.63.41-.34-.3-.23-.44-.61-.35-.78-1.11h-.23c.1-.43-.4-.26-.45-.66-.1,0-.27.07-.22-.13-.19-.2-.19.11-.23-.3L645,80.7h0a.92.92,0,0,1-.32.74v-.22a1.36,1.36,0,0,1-.38-.38V93.17c.24.44-.55,2,.35,1.92v.66a.94.94,0,0,0-.6,0c.05.08.37.15.37.21a2.86,2.86,0,0,1-.28,1.65,5.62,5.62,0,0,1-.17.77,1.32,1.32,0,0,0,0,.48c.09.3.31.06.46.21s-.15.47.14.61c.11.06.27,0,.34.08.26.36-.18.25-.34.37s.27.35.44.52c.39.38.06,1-.32.48a.14.14,0,0,1,0-.06s0-.06.09-.06a.4.4,0,0,0,.11,0,.11.11,0,0,0,.08-.16c0-.1-.38-.05-.47,0s0,.26,0,.34-.23.2-.23.09v-1.1c-.31,0-.07-.06-.22.22V101a.27.27,0,0,1,0,.09v6h11.32c-.27.38-.13.59.51,0h6.58V48a1.17,1.17,0,0,1-.3-.1c.06-.48-.5-1.69,0-1.76a1.79,1.79,0,0,1,.3-.69V30.84H644V57.33l-.06-.06L639.94,53l-2.68-2.86L636.19,49c-.23-.25-.41-.55-.66-.78-.07-.06-.17-.2-.28-.17s-.15.19-.13.2a1.74,1.74,0,0,1-.66-.44c0-.38,0-.8-.44-.88a2,2,0,0,1-.12-.39l-.26-.28h-.06a2.85,2.85,0,0,1-.24-.33L619.19,30.84H605.61v4.49l.8.91h-.8V38a14.31,14.31,0,0,0,1,1h.44c.17.71.34.48.45,1.33.26,0,.45,0,.55.15s0,.35.2.57a2,2,0,0,1,.35-.06.69.69,0,0,0,0,.62,7.13,7.13,0,0,0,.93,1.07c.17.17.17,0,.12.3.39-.13.17.46.22.66.9.23.28.1.67.66.32-.12.34.48.44.66l1.1,1.11h.44a.73.73,0,0,0,.12.38c.19.35.57.72.72,1s.09.31-.17.33c-.25.38-.14-.07-.67.07v-.44a30.7,30.7,0,0,1-3.09-3.31c-.61-.16-.49-.06-.66-.66l-.66-.55c-.14-.61-.29,0-.44-.56l-.67-.77,0-.06,0,0-.53-.55c0-.07,0,.05.09,0l-.3-.09c-.06-.21-.1-.23-.36-.29V40c-.18,0-.29-.26-.37-.29s-.18.24-.29-.19c-1.63-.27-.6-1.25-1.66-1.43-.07-.26-.09-.33-.06-.39s.08-.07.11-.08,0-.1-.22-.28c.26,0,2.36-.09,2.17,0,.07-.11-.23-.36-.48-.36l-2.2,0c-.06,0-.31-.32-.34-.36H605c0-.07,0-.08,0-.17l0-.06h-2.41c0-.31-.66-.52-.79-.71l-4.54-5.16H597a.7.7,0,0,0-.33-.09,2.51,2.51,0,0,0-1.55-1.55c-.13-.44,0-.19-.22-.44-.42-.67.06.94.22,1.33.67.19.72.42.83.75l-33.08,0v11.9c.8.17.35,1.41,1.34.85.13.44,0,.19.22.44,0,.19.12.53-.22.44,0,.21,0,.24.22.22-.21.69.14,2.16-.44,2.43v1.54s-.79.49-.22.45c.08.54-.51,1.86,0,2,0,.24-.42.59-.22,1.11,1,.24.29,1.73.22,2.2-.51-.1-.66-.43-.9-.36V71.26a6.61,6.61,0,0,0-.59.65c-.41.53,0,.48.59.77v2.37a.67.67,0,0,0,0,.42v.21C561.68,75.68,562.07,76.43,562.05,77Zm82.79,18.57v-.22c.25-.25.26-.07.38-.5h.37C645.48,95.2,645.34,95.66,644.84,95.53Zm.75-.94c.17,0,.46-.12.38.22C645.59,94.68,645.81,94.83,645.59,94.59ZM642,75s0-.06,0-.07S642,75,642,75Zm-5.76-25c-.3-.05-1.08-.39-.45-.44C636.39,49.09,636.2,49.64,636.23,50.06Zm-.45-.66c-.42,0-.17-.16-.66-.22C634.49,47.9,635.86,48.22,635.78,49.4Z"/><path class="cls-1" d="M447.79,41.67c-.13-.44,0-.19-.22-.44C447.59,41.45,447.48,41.75,447.79,41.67Z"/><path class="cls-1" d="M491.73,40.13h-.24c-.12-.29-.25-.56-.38-.82a2.68,2.68,0,0,1-.26-.73h-.14A18.71,18.71,0,0,0,487,34.34c-4.1-3.7-13.42-3.68-21.41-3.68-2.15,0-4.16,0-6,.07l-3.67,3.63-.1,0c.12-1-.24-.43-1.1-.45.27,1-.58.4-.66.89-.47.39-.14.44-.89.66.13.78-.66.28-.66,1.1h-.66c-.23,1.15-1.29.7-1.11,1.77-1.45.3-.83,1.29-2,1.32-.18.72-.51.85-1.11,1.11.37.3.62,1,0,1.1-.24.46-.08.66-.18.81l0,0a1.61,1.61,0,0,1-.66.26c.19.18.09.14.23.17l-.27.26h-.18s0,.06,0,.13l-5.06,5-.06-.06c0,.55-1,.47-.44,1.11-.17.34-1.9.34-1.75,1.23-2.17,1.88.51.62,2.11-.57,0,.59,0,1.21,0,1.86v31.6c.13.1.15.21,0,.25v1.6c0,.12,0,.22,0,.34s.05.23.09.25l1.33-1.34s.77-.51.44-.85c0,0,.14-.17.18-.18s.13.13.18.08a2.46,2.46,0,0,0,.23-.52,2.26,2.26,0,0,1,.48-.65c.21.07.51.39.44,0,.2,0,.24.06.22.14h0c.41-.45.46-.15.67-.88l.44-.41c.3-1,.36-.36.88-.89.09-.54.41-.24.88-.49.08-.62,1-1,1.33-1.51l2.31-1.6L450,78.7c-.55.33-.13.24-.44.66-.53,0-.55.48-.66,1.1h-.44c-.06.16.17.24-.22.07.1.36-.31.58-.45.63.07-.21.4-.51,0-.44v.22c-.43-.09-.14,0-.13.3l-.53.36a1.8,1.8,0,0,1-.66.93H446c-.24.29-.82.33-.72.76l-1.93,1.94c.19.67-.81,1-1.06,1.53-.5-.13-.53.26-.66.66-.52,0,.16,4.59-.1,4.76a17.56,17.56,0,0,0,.49,2.34c.11,0,.25,0,.45.13-.05-.4.1-.75.22-.22.43-.08,0,.41,0,.66h.66c.07,1.34.93,1.76,1.1,3.31h.44v.45c-.57-.42-.42,0-.44.44a1,1,0,0,1,.4.69l.15.19c.34,0,.35,0,.34.4,0,0,0,0,0,0h.4v.44h0c.6.16.66.37,1.1.67-.06.54.48.09.44,0h.22c0,.63,1.17,0,1.33,0,0,.54.88.1.66.88a1.62,1.62,0,0,1,.93,2.31c3.15,1.77,7,2.2,15.06,2.2,1,0,2,0,3,0a2,2,0,0,0,0-.51h.22V107h.44v.06l.51,0c.28-.54,1.33.27,1.48-.26a1.86,1.86,0,0,1,1.1-.44v-.44c.83.18,1.46,0,1.34,1a43.28,43.28,0,0,0,5.76-.77l2-2h0c-.73.66-.26-.45-.22-.88.36-.07.33.39.54.59l11-10.9a26.34,26.34,0,0,0,.38-4.67V63.15H481.7c.2.45.39.74,1,.39-.22.52-.38,1.22-.89,1.32,0-.7.44-.41-.22-.66,0,.23,0,.23-.22.22-.88-.26-1.94,0-2.87-.44.14.38-.49.16-.66.22,0,.22,0,.24-.22.22.12-.42-1.59-.8-1-1.28h-.1c-.24.1-.52.27-.5,0h-18.4v1.4l6.64,6.55h11.52v6.81h.08v.45c.49,0,.14.22-.08.35v.81a.8.8,0,0,1,.08.16h-.08v.66a.21.21,0,0,0,.08,0c.05.17,0,.12-.08.1v.35h.08v.89c.34-.09.19.24.22.44.36-.08.3.42.44.66,1.06-.08,0,1.76,0,2.21-.25-.25-.09,0-.22-.44-.14,0-.37-.15-.52-.19v6.31c0,3.09-.77,5.25-2.29,6.47a9.78,9.78,0,0,1-6.14,2.3,14.24,14.24,0,0,1-7.52-2.3q-2.3-1.83-2.3-6.47V45.43q0-4.63,2.3-6.52A9.57,9.57,0,0,1,466,36.55a14,14,0,0,1,7.52,2.36c1.52,1.26,2.29,3.43,2.29,6.52V58.64h17.28v-6.5c0-5.63-.48-9.11-1.45-11.64A1.12,1.12,0,0,1,491.73,40.13Zm-15.4,37.74c-.44-.12-.19,0-.44-.22h.44Zm-2.48,27.82c.25.25.08,0,.22.44-.2,0-.53.12-.44-.22C473.85,105.93,473.86,105.91,473.85,105.69Z"/><path class="cls-1" d="M496.07,29.51c-.91-.37-.15,1,.85,2.06V40a19.28,19.28,0,0,1,1.34,5.41.77.77,0,0,0,.07.62,59.82,59.82,0,0,1,.27,6.16v6.5h-1.68v4.51h1.68V87l-1.68,1.66v18.51h17.25v-49c-.06-.19-.07-.43-.14-.62h-.44c0-.26-.39-1,0-1.11-.52-.07-.56-.47-.67-1.1h.44c-.11-.75.45-.27.81,0V54.18a2.88,2.88,0,0,1-1-1.3h-.51c-.25-.89-.33-.47-.76-1-.49.11,0-.48,0-.77,0,0-.17,0-.26-.51,1.11-.3.42,1.84,1.53,1.54.18.71.07.58.76.77.4,1.57,1.2,1.2,1.38,2,.84.21,1.93,1.37,1.55,2,.41,0,.49.45.59.86l.23.25H518a2.64,2.64,0,0,0,.19.51l1,1.14a1.35,1.35,0,0,0,.32.11c.22,0,.23,0,.22-.22.29.15,1,0,.88.44.46.36.66.72,1.32.89v.44c.8-.22-.26,2.68-.86,3.38l6.55,6.53L541.5,55.69v25.8c.13,0,.23.09.26.36.39.09,1.27-.55,1.76-.66.16.74-.27.75-.88.88,0,.21,0,.24.22.22,0,.21,0,.24.22.22,0-.22,0-.24.22-.22v.88c-.38.1-1.81,3-.66,2.87-.86.6.3,1.16-.88,1.33-.38.8.55,1.18.66,1.54a.33.33,0,0,1-.22.44c.07.3.15.59.22.89.42-.2,1.09-.29,1.1.22-.2,0-.24,0-.22.22.54-.1.08,1.06-.22.88,0-.7.43-.41-.22-.66v.66a.9.9,0,0,0-.44.44c-.16,0-.8-.45-.66,0-.38-.12-.17.47-.22.66h0v14.52h16V52.81c-.13.18-.12.52-.22.78H557c0-.76.15-2-.22-2.43-.62.69-.53-.65-.66-1.1h.22c0-.22,0-.24-.22-.22,0-.19.12-.53-.22-.44.27-.76-.29-2.68.66-2.65v-.44c-.44-.13-.19,0-.44-.22.85-.25.51-.24.44-1.11H557v.44c.22,0,.24,0,.22-.22a1.2,1.2,0,0,0,.22-.24v-.35c-.24.1-.5.25-.44-.07.38-.25.3-.14.44-.66V30.67H544.75l-13.28,16.8c-.4-.56-.38-1.55-.81.09-.87.21-.7.61-.35,1l-2.39,2.29L512.53,30.59l-13.72.07a6.38,6.38,0,0,0-1.12-.91c-.58-.6-1.08-.73-1.1-1.77h-.67c-.13-.44,0-.19-.22-.44.05-.59-.62.52-.44-.44-1.17-.18-1-1.65-2.21-1.32.06-.41,0-.5-.44-.44-.11-.39-1-.91-1.94-1.84-.35-.34-.38-.22-.6-.28A67.52,67.52,0,0,1,496.07,29.51ZM541.54,81c.25.26.09,0,.22.45h-.22ZM511.43,50.31h.25c0,.26,0,.28-.25.26-.29.29,0,.1-.51.25v-.25h.25c.49-.22-.5-.26-.5-.26C510.08,49.06,511.08,49.47,511.43,50.31Zm-1.53-1.8c.55.25.69,1,0,.51v.26C509.41,49.38,509.88,48.8,509.9,48.51Zm-1.27-1.8c.12.5.53.89-.25.77,0-.49-.19-.21-.26-.77Zm-2.54-2.58c.29.3.1,0,.25.52h-.25Zm-.51-1c0,.26,0,.28-.25.26s0,.36-.51.26C505,43.22,505.15,43,505.58,43.1Z"/><path class="cls-1" d="M654.77,108.34c.12-.41.41-.78-.22-.66C654.6,107.94,654.39,108.42,654.77,108.34Z"/><path class="cls-1" d="M645,80.69c0-.08,0-.1,0,0Z"/><path class="cls-1" d="M607.1,41.5c.14.47.1-.41,0,0Z"/><path class="cls-1" d="M399.6,105.64a.52.52,0,0,1,.18-.13h0C399.69,105.48,399.63,105.59,399.6,105.64Z"/><path class="cls-1" d="M360,77.8c0,.25-.11.59.25.5C360.21,78.05,360.35,77.71,360,77.8Z"/><path class="cls-1" d="M367.09,104.38l.54-.85c.15-.24.37-.54.49-.77s0-.18,0-.19l.36-.07c0-.12.18-.21.26-.32a3.15,3.15,0,0,1,.22-.29,1.23,1.23,0,0,1,.28-.23,4.29,4.29,0,0,0,.43-.16c.07,0,0-.25,0-.32v-.41c1.34.48.79-2.1,2-1.25.44-.6-.3-.67.75-1.25v-.82l.18-.18h.26a.82.82,0,0,0,.27,0c.06,0,0-.13,0-.19a1.69,1.69,0,0,0-.08-.24l3.41-3.39a16,16,0,0,0,.7-4.62V30.62H358.58v39.8l.41-.11c-.05.35,0,0-.25.25.34.3.5,1,1,1a.64.64,0,0,1-.25.75c0,.23.66,1.5,0,1.5-.09.36.24.22.49.25l-.24.74c.46,0,.76.6,1.24.75-.47,1-.48.37,0,1.5-.62-.14-1.2.3-.25.25-.08.32.23,1.09-.25,1v.25c.18.26.34-.09.25.25-.59-.15.09.9-.5.75,0,.35.23-.1.25.25s-.16.66-.25,1a5.92,5.92,0,0,1-1-.25c.09.36-.25.23-.5.25-.05.15-.1.31-.16.46v7.92c0,6.49-3.51,10.06-8.67,10.06-4.3,0-8.44-2.84-8.44-10.06V66.31c-.43,0,.19-1.13-.4-1-.3-.47-.07-1.07,0-1.5.24-.2.27-.44.4-.63V46.39a1.24,1.24,0,0,1-.4-1.29c-.52.14,0-.64-.5-.5a8.68,8.68,0,0,1-.5-3.25c.73.12,1.46.56,1.24-.5h.16V30.62H323.72a2.43,2.43,0,0,0,0,.27l-.73.37a3.2,3.2,0,0,1-.1-.42v58a16.83,16.83,0,0,0,2.27,8.59,4.57,4.57,0,0,0,.47-.65c.28.21,0,0,.25.25,1.07.68.56,1.61,2,2v.5c.35.17.31.36.5.5.63.46.47-.27.75.75.86.15,1.28.41,1.49,1.25.48,0,.88-.12.75.49.78-.59.49.64.47,1.4,4.45,2.59,10.54,4.1,18.23,4.1a42.07,42.07,0,0,0,11.56-1.48c.07.13,0,.3-.18.5-.54.66-2.1,1.71-3.4,3.09-.17.18-.34.37-.5.57a4,4,0,0,1-.16.66,3.33,3.33,0,0,0-.1.4,2.58,2.58,0,0,1,.33-.48c.09-.08.19-.1.2-.06s-3.68,3.78-3.79,3.94l-.42.64c-.21.31-.59.83-.24.62.14-.08.27-.39.39-.44s.05.11.06.16c0,.22.18.25.6-.26.2-.41.35-.72.47-.94s.3-.5.37-.53.1.2.19.27.32-.09.91-1.07c.06-.12.14-.24.21-.37a2,2,0,0,0,.56-.28,7.26,7.26,0,0,0,1.69-1.84c.13-.26-.45.1.12-.53a3.82,3.82,0,0,1,.37-.22c.49-.22.18.32.62-.06a9,9,0,0,0,.78-.78c.18,0,.25,0,.57-.53h-.44a2.42,2.42,0,0,1,.21-.33c.15-.2.22-.16.27,0s.07.35.17.38c.57-.69,0,.15.56-.53l1-1.59c.2,0,.23,0,.56-.53.35-.06.38,0,.24.21-.25.34-1,1-1.61,1.91a2.12,2.12,0,0,1,.89-.24,1.53,1.53,0,0,0,1.1-.82,3.3,3.3,0,0,0,1.47-1.09A16.08,16.08,0,0,0,367.09,104.38Zm.77-1.76h0Z"/><path class="cls-1" d="M389.82,107a1.06,1.06,0,0,0,.25,0v-.27c-.29-.29-.1,0-.25-.5.23.08.58.45.5,0,.28-.28.1,0,.25-.5.84.15.61.62,1.49.5,0,.37.38.56.71.77h4.77c.68-.2.55-.09.74-.77.22.14.36-.39.39-.51a1.92,1.92,0,0,0,.07-.48c0-.11,0-.22-.13-.28h-.06c0-.17,0-.33,0-.5a.22.22,0,0,1,.06-.18c.05,0,.11,0,.15-.06s0-.14,0-.19a.44.44,0,0,1,.16-.33.85.85,0,0,1,.56-.18.53.53,0,0,0,0,.35.16.16,0,0,0,.05.09c.1.07.38,0,.48,0a3.9,3.9,0,0,0,.48-.17c0,.09,0,.19.06.28s.14.09.14.17-.13.18-.12.25.34,0,.42.14-.14.15-.24.15a1.4,1.4,0,0,0-.17.22l-.16.14a2,2,0,0,1-.3.14,1,1,0,0,0-.31.22l-.05,0c.85.34.46.6-.25.5-.11.3-.09.75-.21,1h15.55a43.37,43.37,0,0,0,7.42-.55l11-10.87c-.06-.06-.12-.08-.12-.09.18-.36,0-1.3.5-1.24.28.21-.1.21.25.25.75-.31.4-.3,0-.74H434c.61.07.76-.1.68-.75h.49c.18-.35.37-.31.5-.5a.52.52,0,0,0,.07-.12c0-.2.07-.41.1-.61l.08,0A30,30,0,0,0,439,89l.62-.82s.68-.79.41-.61c-.61.29-.6.41-1,.61,0,0,0-.46-.2-.2s-2.53,2.17-2.66,2.28c.24-2.32.37-6.11.37-9V63c-.14-.57.21-4,0-4.3s-.24.25-.24.25c-.42.24-.21-.35-.25-.5.71-.08.52-3,.55-3.93-1.33,1.33-5.19,5.73-3.88,3.68-.53-.07-2.82,2.6-3.48,2.86,0,.13-.77.59-.62,0,.6-.16,3.53-3.67,4.71-4.53.5-.49-.23-.38.82-1.43a8.9,8.9,0,0,0,2.45-2.86,42.55,42.55,0,0,0-1.06-9.92,2,2,0,0,0-.6,0c-.34-.4-.55-.43-1.25-.5-.21-.87-.52-.75-.63-1.85.38.29,1.75.28,1.6-.16A11.61,11.61,0,0,0,432,35.93c-.5-.68.08,1.19-.88.94-.05-.57.12-.55-.08-.9-.67.13,0-1-.63-.86-.28-.28,0-.1-.49-.25v-.78c-.32-.21-.64-.42-1-.61a1.16,1.16,0,0,0-.27.64l-.5-.25c-.24.18-.2,1.12-.49.5-.62-.38-.16-.27-.5-.75h-.25a1.77,1.77,0,0,1-.5-1.25.51.51,0,0,1-.54-.23,35.79,35.79,0,0,0-11.41-1.52H402.27s-.5,0-.5,0h-.35a1.23,1.23,0,0,1-.43,0h-.22c.54.79-.22.33-.74.25,0,.27.48.85,0,.75.09-.48-.68-.17-1-.25-.16-.49-.33-.54-.75-.25,0-.56-.38-.12-.25.25l-.25-.25c-.34.09-.34-.35,0-.25.1-.17.06-.23,0-.26h-.28a.61.61,0,0,1-.18,0c0,.66-1.3-.24-1,.75h-.75c0,.25.12.58-.24.5-.06.48.47,0,0,.74-.32-.24-.26-.54-.5-.74h-.5c-.15-.28-.09-.85-.5-.75a4.32,4.32,0,0,1,0-.51H382.86V107h6.59A.6.6,0,0,1,389.82,107ZM401,91.28a3,3,0,0,1,0-1.75c.63.15-.14-1.15.5-1,.21-.35.17,0,.25-.56-.57.1-.61-.19-.56-.49s.08-.53.56-.44V85.26c-.75-.2-.66-.16-.75-1,.32-.45.09-.66,0-.72.73.18.45-.5.5-1-.22,0-.29,0-.25.25-.21.47-.25-.5-.25-.5a1.9,1.9,0,0,0,.5-.75c-.17.09-.33-.5-.5-.41.15-.59-.33-1.49.25-1.58a5.86,5.86,0,0,1-.25-1h.25c.28.28,0,.1.5.25-.09-.7-.36-.68,0-1.25a.42.42,0,0,0,.19-.07V37.71h7.1c9,0,10.67,4.9,10.67,13l0,36.84c0,6.89-2.81,11.64-10.62,11.64H402v-5a8.82,8.82,0,0,0-1.19-.23c-.21-.29,0,0-.25-.25-.08-.42-.16-.83-.25-1.25C401,92.57,401,92.89,401,91.28Z"/><path class="cls-1" d="M441.24,86.18a3.1,3.1,0,0,0-1,1.63l1-.81Z"/><path class="cls-1" d="M398.53,106.51v.5l0,0h.28C398.8,106.75,398.87,106.43,398.53,106.51Z"/><path class="cls-1" d="M397,30.61h0Z"/><path class="cls-1" d="M352.08,117.46c.44.05.39.1,1.12-1.06C352.76,116.36,352.81,116.31,352.08,117.46Z"/><path class="cls-1" d="M727.28,65.91a5.16,5.16,0,0,0-1.55,1.2c-.16.3.18.4,1,.34.57-.57,1.09-1,1.86-1.76l.34.08c0-.3.51-.9,0-.79-.16-.54.23-.32-.08-.62C728.54,65.13,727.38,65.11,727.28,65.91Z"/><path class="cls-1" d="M672.78,48.53c0-.26.26-7.26,7.13-7.26S687,48.62,687,48.62v9.09c.13,0,.19.12.13.47.37-.09,1.15,0,.49.18-.38.18.41.21.41.21.13.56.27-.09.41.47.39,0,.72-.1.61.41-.35-.21-.46-.25-.41.2.57.5,0,1,.41,1.24-.51-.11-.41.22-.41.61-.56.15-.45.06-.61.62-.35-.09-.15.38-.2.62l-.56.18c0,.22,0,.7-.27.76V97.52c0,9.91-7.79,9.45-7.79,9.45v.66h6.05c-.06.65-1.32.69-1.05,1.53-.79.21-.85.66-1.37,1.18-.18.19-.07.39.21.37l-.67.05c-.62.62-1.46,1.35-2.85,2.66h.8c.26-.92,1.6-.88,2-1.6,1.06-.14.3,0,1.62-1.06.34-.07.91-.83.83-.27.61,0,.49-1.33,1.09-1.33.82,0,1.18-.11,1.07-.26a6.19,6.19,0,0,1,1.5-1.27h27.38V107s-7.8.46-7.8-9.45v-2.7c-.13,0-.29,0-.47,0v.27c.31.3-.16-.09,0,.44l-.53-.18v.27c.3.3.11,0,.27.53-.51,0-.55.29-.8.53-.37-.09-.41-.51-.8-.12a3.21,3.21,0,0,0-.53.65c-.06.3.2.91-.26.8-.31.3,0,.11-.54.27-.08.26-.17.53-.26.79-.27-.2,0-.12-.26-.32l-.27.59c-.74.19-.21-.34-.74.19s-.68.7-1.39,1.4v.27c-.23,0-.31,0-.26-.27a1.29,1.29,0,0,0-.68.77c-.17-.07-1.09,1-1.06.74.17-.09,1-1.33,1.2-1.42-.09-.73.07-.89.8-.8,0-.27.12-.5.51-.41a21,21,0,0,1,1.62-1.71c.52-.52.06-.9.79-.8.69-.68,1.15-1.46,1.86-2.13.55-.86-.46-.9,1.07-1.33V93.3s.36-.24.73-.47V88.09c-.07.07-.13.62-.2.71s-.42.14-.59.4a3.16,3.16,0,0,0-.4.88c-.89.19-.06.34-.9.56v.26s.91-.15.53.27h-.26a5.14,5.14,0,0,1-1.11,1.07c-.42.24-.61-.34-1,0l-2.23,2.22a4.16,4.16,0,0,0-.74,1c-.27-.07-.12-.26-.27-.07s-.83.85-1,1.09c-.37,0-.47,0-.59.16s-.06.22,0,.39c-.35,0-.71.65-1.06.65-.27,1.09-.8.69-1.09,1.74-.36,0-.65,0-.71.08s0,.21.18.45c-.66.66-.16-.41-1,.46a13,13,0,0,1-1.55,1.53c-.08,0,0-.06-.33-.13,0,.08-.24.16-.25.21s-.06.3-.4.63-.35-.07-.35-.07c-.32.1-.43.22-.85.65-.14.13,0,.21,0,.44a17.1,17.1,0,0,0-2.39,2.11.81.81,0,0,1-.63.19c-.09,0,.91-1,.94-1.09.12.11.31.25.22-.06.3-.3-.29-.53.26-.53.36,0,.88-.29.75-.8.38-.38.45-.47.87-.91l.22-.1c-.07-.31-.06-.41,0-.45s.27-.35.51-.43a4.39,4.39,0,0,0,.53-.53c.28-.27.37.07.58-.14.75-.75,1.31-1.3,1.68-1.72.17,0-.1-.13,0-.25.56-.55,1-1.07,1.39-1.46h.53c.2-.74.08-.6.8-.8.16-.29.21-.24.77-.8,0-.27-.12-.53.27-.43.36-.4.31-.25.8-.74.85-.85,1.36-1.56,1.81-1.89l.29-.24c-.09-.35.29-.38.53-.53-.09-.36-.19-.72,0-.82,0,.2-.08.45.26.35,0-.19,0-.33,0-.45l.29-.08c.18-.72.08-.19.75-.38.25,0,.38-.85.31-1.36h.8c0-.26-.16-.62.26-.53.59-.75.34-.07.8-.53.85-.86,1.08-1.11,1.62-1.75,0-.1,0-.45,0-.53s0-1.23,0-1.23.11.23.1.12,0,.55,0,.76.15.09.3-.06.47-.5.89-.91v-.26a1.27,1.27,0,0,0,.6-.09c.11-.06.54-.42.36-.56s-.6.17-.7.11a20.65,20.65,0,0,0,2.84-2.59c0-.31-.17-.61-.07-.9a1.09,1.09,0,0,1,.48-.58c.33.09.53.51.94.09,1.09-1.09,3.29-3,4.32-4a.75.75,0,0,1,0-.51c.1-.18.21,0,.81,0-.12,0,0-.2,0-.24s.11,0,.24,0c1.9-1.89,1.68-1.78,2-2.14s.64-.48.51-1l.64-.63.23.48.79-.78s.34.07,0-.23c0,0,0-1,.27-.53,0,.29,0,.27.26.26,0-.22,0-.3.27-.26l.7-2.2c-.29,0-1,.68-1,.94-.66.66-.82.53-1.44,1.14.26-.25-.51,1.06-1,.89-.74.9-.07.09-.88.9a3.13,3.13,0,0,0-.72.28c-.42.2-.54,0-.7.61v.27c-1.22,1.26-3.33,3.12-4.73,4.52l-.48-.2a.55.55,0,0,0-.22.29c0,.12-.06.25-.11.39-1.34,1.34-3.53,3.19-3.45,3.29l-.93.31a1.39,1.39,0,0,0-.8.36,1.77,1.77,0,0,0-.27.7H708v-4a3.44,3.44,0,0,1-1.26-1.28c.32-.07.88-.56.26-.53.25-1.11-.67-.71-.53-1.6-.53-.15-.23,0-.53-.26h.26c.11-.39-.27-1.4.27-1.33A2,2,0,0,0,707,72.5c.49.08.6,0,.53-.53a3.68,3.68,0,0,1,.47,0V67.9a1,1,0,0,0-.47-.46c-.46-.84.25,2,0,1.34-1.08-.31.29-.75-.79-1.06-.34-.69-.07-1,0-1.59.24.05.3,0,.26-.27l.27.27c.6-.37.42-.11.73,0V48.62s.18-7.35,7.05-7.35,7.13,7,7.13,7.26V55h6V30.69H712.08c-.06.37-.44.08,0,.76-.52,0-.93.13-.8-.53-.46-.11-.2.5-.26.8h-1.07l-.26-.27c-.09,1-1.33.14-1.33.8-.16,0-2-.5-2.66-.53v.53c-.29-.16-.9-.09-.79-.53-.27,0-.63.12-.54-.27-.68,0-1.65.66-1.86-.26l-.26.26c-.4-.19-1.38,0-1.33-.53-.44,0-.51.53-.53.53l-.8-.26s-.05.57-.26.26a5.16,5.16,0,0,0,0-.76H666.73V55h6Zm16.52,9.3c.34.18,1.15,0,1.07.53.45-.27.6-.32.53.27h-.27c-.31.36-.48.4-1.06.53.09-.27.18-.53.26-.8C689.35,58.43,689.23,58.31,689.3,57.83Z"/><path class="cls-1" d="M687.18,62.94l.05,0C687.22,62.8,687.2,62.76,687.18,62.94Z"/><path class="cls-1" d="M286.08,27.3l2.81,0c0-.14-1.19-.4-1.21-.58s.3,0,.44-.66c-.42-.1-.4.87-.88.22C287.6,26.83,286.37,26.81,286.08,27.3Z"/><path class="cls-1" d="M317.54,94.89c0-.25-.12-.75-.55-.66-.05-.18.16-.8-.22-.67,0-.25.43-.74,0-.66.05-.52,1.05-1.17.33-1.32v-.22c.51.06,0-.47,0-.45,0-.21,0-.24.22-.22v-2c.64,0-.61-.7-.55-.89.51.08.05-.48,0-.44v-.22c.05,0,.11,0,.18,0a.67.67,0,0,0,.07-.37,1.81,1.81,0,0,0,.05-.65c-.05-.15-.38-.27-.3-.41a.21.21,0,0,1,.21-.08c0-.14-.05-.32.08-.43s.14.08.18-.16a1.81,1.81,0,0,0,0-.4c0-.2-.07-.57.06-.73s-.05-.32,0-.58.06,0,.12-.12.06,0,.07-.17a2.26,2.26,0,0,0,0-.26h0V40a.26.26,0,0,0,0-.08h0v-.67h0l0-.07v-1a.52.52,0,0,0-.47-.08c.06-.21.4-.51,0-.44v-.22c.05.07.51-.52,0-.44v-.22c.52.1-.07-.54.44-.44-.31-.24-.14-.75,0-1.25V34a.55.55,0,0,0-.25,0c-.15-1.33-1.12.32-1.32-1.1h-.22c-.33-.47.6-.92,0-.89v-.22c.55-.13.39-.45.22-.88.5.13.53-.27.66-.66-.07-.12-.4-.17-.22-.67h.22v-.44c.8-.23.46-1.32.66-2a.2.2,0,0,0,.25-.1v-7.2l-27.19,0c-.2-.79-.31.37-1-.62-.25,1.89-1.11.27-1.55,1.32,1.18,0-.61.52-.66,1.11-.68-.18-.21.62-.88.44.13.44,0,.19.22.44-.13.33-2.54.86-1.77,1.77a.88.88,0,0,0,0,.23l-.27.27c-.11-.36-.06,0,.05-.5h-.44a4.62,4.62,0,0,0,.17.73l-2.25,2.29c.37,0,.53.08.55.21.07.37-1.11,1.17-1.56,1.62-.18-.14-.42-.08-.71.11a29.57,29.57,0,0,0-3,3.18,2.83,2.83,0,0,1-.09.76c-.19.69-.66,1-1.3,1.69-.32-.26-.52.11-.75.59a6,6,0,0,1-.48.9,1,1,0,0,1-.77.46c0,.49-.79.92,0,.65-.15.21-.08.18-.39.25-.08.38.15.2.39.13l.13.13c.12-.16.3-.14.39-.26-.07-.44.44-.69.91-1.15.25-.26.37.24.58.21a.93.93,0,0,0,.68-.32,5,5,0,0,1,.86-1.24c1.47-1.45,6.82-6.82,8.38-8.07a2.13,2.13,0,0,1,1-1.15,1.11,1.11,0,0,0,.37-.84l.15-.08a7.44,7.44,0,0,1,1.61.74c-.62,1.11.34-.27.23.44.45.2.51.67.69,1h9.68v24c.35.28.15,1,.81.82.45,2.36-.53,4.91-.81,8.06v3.64H300c.17.71.33.48.44,1.32h.44c-1.06.6.63,1.63-.44,2a4.14,4.14,0,0,1,0,2.21c-.61-.16-.49-.06-.66-.66-.14,0-.26.11-.37.16V101a9.24,9.24,0,0,1-3.09,7,.16.16,0,0,1-.08,0l-.13.09c0,.27-1.15,1-1.5.79-.72.84-2.11.43-2.87,1.22a20,20,0,0,0-3.31-.37c0-.47-.42-.48-.88-.66,0,0,0-.05,0-.07-3.08-1.12-4.09-4.08-4.57-7.38.15-.53.08-1.92.19-2.51-.2,0-.31,0-.38,0,0-.29,0-.58-.05-.87s.41.3.4,0a1,1,0,0,1-.41-.48,2.35,2.35,0,0,0,0-.26c.07-.48.82-.17,1-.29,0-.28-.63-1.84.44-1.76.07-.59.53-3.94-.51-2.54-1.07-.64-.37-.39-.93.15,0-.88.05-6.84.05-7.65h-20c0,3.43-.05,14,.3,17,.19-.1.4-.29.34,0h.22c-.52.6.88.52.37,1.11h.22c.61-1,.42.32.22.66a3.86,3.86,0,0,1-1-.11,5,5,0,0,1,.05.57c-.25.19,0,0-.22.22l.66-.22c-.24,1,8-.15,7.76.56-3.53-.07,1.11.75-4.26.22-.18.19.74.53-1.42.44-1.17.13-2.87.42-2.3.45,0,.23,0,.48-.22.46-.22.37.32.43.44.46.17.39,0,.63.44.62-.08.37.1-.17.44-.05,0,.19-.12.28.23.2.21.49-5.08.84-.81.84,4.49-.24,0-.08,7.88-.21-.45.67-1.66.4,10,.64.45.48-7.58.33-15.93.32V110H270c4.49.34-3,.52-5.11.54.3.18.74.61.65.71,2.85,5.57,9.53,11.47,25.53,11.47a39.89,39.89,0,0,0,13.5-2.13c.08-.12-.42-.26-.39-.39s.63-.16.53-.26-.19-.27-.19-.27,0,0,.06,0-.08-.06-.14-.22a3.8,3.8,0,0,0,.58.14c.09,0,.25.07.29.16a.25.25,0,0,1-.06.26.54.54,0,0,0,.24-.09,18.49,18.49,0,0,0,4.2-2.79,19,19,0,0,0,3.73-4.16,16,16,0,0,0,2.15-4c0-.1-1.22.16-1.89.1-.52,0-1.16-.43-1.68-.48-.72-.06-3.4-.13-3.36-.24.12-.42,7.1,0,7.2-.48.06-.28.46-1.86.51-2.15a27.16,27.16,0,0,0,.38-4.59l.73-4.43h0c0-.28.1-.51-.14-.68,0,0-.27-.19-.08-.2s.23,0,.29-.12,0-.29-.11-.32a.33.33,0,0,0-.17,0c0-.08.22-.3.16-.41S317.55,94.86,317.54,94.89Zm-34.86-1.54a1.63,1.63,0,0,1,.57,1.13c-.05,0-.5-.82-.57-.77Zm-19.06,9.2c.19,0,.53-.12.44.22C263.62,102.64,263.87,102.79,263.62,102.55Zm22.7,7.19h-2.64l1-.72,1.92.48Z"/><path class="cls-1" d="M263.27,103.87s.07.08.17.11C263.4,103.8,263.35,103.69,263.27,103.87Z"/><path class="cls-1" d="M304.58,119.65Z"/><path class="cls-1" d="M265.44,109.5a8.45,8.45,0,0,0-1,0l.24.48h.48S266.52,109.51,265.44,109.5Z"/><path class="cls-1" d="M257.7,40.75a6.9,6.9,0,0,0,.26.76,5.68,5.68,0,0,0,.19-.74c0-.06-.19-.13-.3-.16S257.69,40.71,257.7,40.75Z"/><path class="cls-1" d="M253.94,34.83c-.8.75-.71,0-.95.38a7,7,0,0,1-4.86,3.29c-.31,0-.38.43-.71.55.1.27,0,.23,0,.42a2.91,2.91,0,0,1,0,.59c-.32-.33-.58-.4-.64-.84a11.08,11.08,0,0,0-.4-1.58c0-.06-.14-.09-.24-.14l-.16.61-.7-.54-.71.52q-.08-.78-.15-1.41c-.4-.42-.82-.07-1.08-.35-.65-.17-.77-.3-1.35-.45a9.58,9.58,0,0,1-2.41.85c-.21-.49.09-1,.23-1.4.32-.44,1.12-.53,2.06-.55a4.64,4.64,0,0,1,2.14.43c-.05-.24.79-.48-.27-1.44-.31-.29-.84-.59-1-.75s-.17-.51-.74-.51c-1.09,0-.85.61-1.12.67a3.33,3.33,0,0,0-1.42.74c-.25.51-.73.82-1,1.39l1,3.26a4.43,4.43,0,0,1,.5,1.81,10,10,0,0,1-.5,2.77,5.16,5.16,0,0,1-.47.53,5.36,5.36,0,0,1-.45.37l-.6.07-1.73,1.32c0,.26,0,.59.18.45,2.23-2.1.37,2-.29.65-.19-.39-.21.87-.46,1.21a3.72,3.72,0,0,0-.85,2.74,6.09,6.09,0,0,1-.48,2.31,13.58,13.58,0,0,1-1.83,5.05,2.65,2.65,0,0,0-.22.5,8.87,8.87,0,0,0,.13,1.1c.37,1.54,1,3.52,1.35,5.06a5.34,5.34,0,0,1,0,2.45,19.74,19.74,0,0,1-.82,2.31,1.39,1.39,0,0,0,0,.5l.85.94a6.65,6.65,0,0,1,.44,3.18l-.85,1.34c-.41.3-.82.58-1.21.88a1.94,1.94,0,0,0-.29.42c0,.32,0,.64.06.93l.47.39.77-.81c0-.26-.08-.46-.12-.68.26-.08.52-.14.77-.24s.33-.43.64-.33c.09.28.09.62.26.78a2.93,2.93,0,0,1,.86,1.9c.09.65.26,1.29.41,1.92.57,2.45,1.15,4.89,1.74,7.37l.68.25-.53.8c.18.75.39,1.43.5,2.13a11.36,11.36,0,0,1,.46,3.23l.06,0v-.07s0,0,0,.08c.35.13.22.44.2.71a.21.21,0,0,1,0,.09c.78,3.51,2.78,5.89-.48,7.63H237c-.31,0-.73.88-.39,1.14l7.45,0s0,0,0,0a2.5,2.5,0,0,1,1.56.45c.12.28.37.77.45.22h.22v.23c.32,0-.08-.13.22-.23s.82.17.67-.22c.32,0,0-.28.12-.49a12.91,12.91,0,0,0,3.26-.15,6.94,6.94,0,0,0-2.8-1.15l-.06,0c-.25-1.24-1.25-2.85-1.86-2.3-.21-.4-.31-.35-.44-.89-.41,0-.46,0-.45.25l-.43-.62V93.1c.44-.68.85-1.33,1.28-2a5.45,5.45,0,0,0,.84-1.95c.12-.74.66-1.41.36-2.33l-.91,1.66c-.12.21-.26.37-.54.15l.92-2.24-.34-1,1.54-1.69.42-1.77c-.39-1.22-.52-2.51-1.45-3.47a4.29,4.29,0,0,0-1.88,1.84s-.15,0-.28.06v-1.3a6.62,6.62,0,0,1,.94-1.37,3.35,3.35,0,0,0,1.11-2.48c0-.1.13-.19.23-.28a.47.47,0,0,0,0,.24,6.37,6.37,0,0,1,.72,3.15l1,1v1.45a9.17,9.17,0,0,0,0,1.48c.08.5-.43.91-.2,1.4,1.08.09,1-1,1.66-1.43l.76-.21c0-.15-.06-.3-.09-.43.63-.27,1,.13,1.43.36-.09.27-.16.47-.25.72.43.28.64.8,1.32.79.36-.23.78-.48,1.19-.75.08-.05.09-.19.14-.33l-.62-.77c.13-.46.22-.83.31-1.13a2.63,2.63,0,0,0-1.32-1.31c-.45-.21-.88-.45-1.32-.69-.08,0-.14-.14-.19-.19.06-.28.12-.55.13-.61-.07-1.07-.89-1.44-1.3-2.2l.34-3c-.49-.9-.94-1.72-1.4-2.53a.53.53,0,0,0-.54-.36l-1.14,1.42-.66-.21a3.69,3.69,0,0,0-1.48,2.38c-.17.62-.41,1.22-.63,2a5.13,5.13,0,0,1,.23-2.92l-.34-.94c.38-.47.12-1.28.91-1.72-.06.41-.11.76-.16,1.08l.46.22a6.21,6.21,0,0,1,2.52-2c.31-.48.62-.93.92-1.39,0-.24-.1-.44-.16-.71l-1,.37c-.05-.15-.11-.29-.18-.48a4.23,4.23,0,0,0,1.63-2.25c-.1-.45-.21-.93-.33-1.45a3.28,3.28,0,0,0,0-3.13c-.29-.71-.33-1-.62-1.71-.1.39-.65.12-.75.54-.06,0-.86.84-1.47,1.37a10.41,10.41,0,0,0-.84.91c-.23.29-.47.6-.74.9s-.41-.22-.66,0-.49,1.07-.69,1.19a2.48,2.48,0,0,1-1.1.38,28.07,28.07,0,0,0-2.4,2.17c-.74.66-1.28.91-1,.53s2.24-2.24,3.75-3.73c.87-.85,1.59-1.56,1.79-1.8.39-.44,1.07-.14,1.41-.55.81-.92,0-.91,0-1.12a7.73,7.73,0,0,0,2.28-2.76c-.21-.32-.44-.69-.62-1,0-.54,0-1,0-1.42a3.1,3.1,0,0,0-.09-1.5,9.72,9.72,0,0,1-2.9-.7c-.28.31-1.19,1.07-1.36,1.28-.48.66.17-.43.34-.95.13-.17.49-.35.61-.51l.08,0c-.48-.25-.78-.51-.72-.78.35,0,.64.33.82.41a8.67,8.67,0,0,0,3.4.52,6.28,6.28,0,0,0,2.52-.66,5.79,5.79,0,0,0,1.58-1.51,5.69,5.69,0,0,1-.85-.56,7.53,7.53,0,0,1-.73-.86l-.52,0c-.1.19-.21.37-.31.55a1.51,1.51,0,0,1-1.18,0c0-.39,0-.82-.07-1.25-.21-.44-.43-.88-.64-1.31l.37-1.24.63.15V43.78a6.18,6.18,0,0,0,.62-.92,1.9,1.9,0,0,1,.87-1,12.37,12.37,0,0,0,2.35-1.79c.76-.71,1.47-1.74,2.27-2.43.23-1,.86-1,1.15-2.54a2.73,2.73,0,0,1,0,1.75,4.11,4.11,0,0,0-.24,2.21l.57-.21c.06.49.11,1,.2,1.75a4.72,4.72,0,0,0,0-3l.46-.34c-.08-.55-.72-1-.66-1.51s.22-.87.25-1.29a5.78,5.78,0,0,1-1.41.36C254.59,34.85,254.32,34.86,253.94,34.83Zm-7.41,66.26c-.37-.26-.31-.14-.44-.67A1.67,1.67,0,0,1,246.53,101.09ZM248,76.52a.51.51,0,0,1,.63-.16,1.46,1.46,0,0,1,.05,1.42l-.39.07-.4-.36A.86.86,0,0,1,248,76.52Zm-1.06-2.46c.29.48.29.52-.11.81a3.25,3.25,0,0,1,0-.54C246.82,74.24,246.9,74.15,246.94,74.06Zm-2.81-8.93.33.24a.6.6,0,0,1-.57.56C243.64,65.58,243.78,65.34,244.13,65.13Zm.17,16.51c0,.08.13.15.13.23,0,1,0,2.09,0,3.13l-.14,0-.78-2.15C243.74,82.43,243.79,81.9,244.3,81.64Zm.51-26.53c.19-.06.18.31.57.2l.29-1a1,1,0,0,1,.93-.14l.33.34a1.59,1.59,0,0,1-1,1.53c-.23.09-.18,0-.44.18-.3-.08-.65.65-.9.6A2.08,2.08,0,0,1,244.81,55.11ZM247.31,41c.61.39.62.39.43,1.12C247.24,41.89,247.25,41.48,247.31,41Zm-2.17-2.19c.14,0,.32.51.45.54v1c-.22-.08-.72-.16-.9-.22C244.17,40,244.76,39.12,245.14,38.81Zm.19,8.85A1.79,1.79,0,0,1,245,48a3.17,3.17,0,0,1-.59.05c0-.2.54-1.13.54-1.34,0-.75-.49-.77.08-1.6l.5.42c0,.34-.45.71-.4,1.08S245.25,47.29,245.33,47.66Zm-.54-4.16V42.15l.37-.12a1.17,1.17,0,0,1,.11,1.2Zm-6.38,5a8,8,0,0,1,.68-2.25,5.05,5.05,0,0,1,1.45-1c.81-.27,1.68-1.19,1.89-1.16s-1,1-.85,1,.59.11.65,0,.58-.41.83-.35a4.22,4.22,0,0,0,1.41-.33c-.13.16-1.28,1.08-1.57,1.35s-1-.32-1.35,0-1.24.38-1.57.68-.53,1.17-.67,1.35C238.4,49.06,238.36,48.91,238.41,48.48Zm-.82,35.92c.2-.15.2,0,.21.1Zm1.25,1.95c-.11-.46-.25-.9-.33-1.2-.28-.29-.61-.29-.64-.59h1.79c.15.28.29.57.42.84,0,.46-.4.66-.6,1.16v.91A1.61,1.61,0,0,1,238.84,86.35Zm.43,2c-.1-.35.13-.54.24-.77l.51-.22c.21.54-.28.79-.3,1.28Zm.65,9.67.1-.1.08.19Zm-.3,5.44c0-.16-.1-.35,0-.44a2,2,0,0,1,1.08-.87l.17.18A1.38,1.38,0,0,1,239.62,103.41Zm2.37-3-.62,1.06-.54-.3c.11-.26.2-.51.31-.77a7.26,7.26,0,0,0-1-1.64v-.63a1,1,0,0,1,.31.25,2.12,2.12,0,0,0,.87,1,7.42,7.42,0,0,0-.33-3.53c-.08-.38-.15-.75-.23-1.12s-.16-.72-.3-1.31l.81.74c.23,1.35,1,2.49,1.11,3.65C242.27,98.71,242.15,99.46,242,100.46Zm-.21-24.07c-1.25,1.6-3.13,3.92-3.52,4.32,0,.23-.07.55-.13,1l-.73.78c-.1-.12-.19-.18-.21-.26-.28-1.11-.33-2.27-.63-3.38a3.43,3.43,0,0,1,0-.88c.79,1,.42,2.24,1.15,3.23a2.81,2.81,0,0,0,0-.85c-.42-1.53-.47-3.13-.87-4.67a7.27,7.27,0,0,1,0-1.81l-.66-.75c.19-.23.36-.45.68-.4s.16.49.34.84l1.15,1c.08.41.13.85.24,1.27a3.08,3.08,0,0,1,0,1.78,8.27,8.27,0,0,0-.16,2l2.08-2.35c1.07-1.21,2.18-2.46,2.33-2.64C243,75,242.54,75.41,241.78,76.39Zm-4.46-3.83c.35-.39.59-.65.82-.92.54.29.28.64.28,1Zm5-5.68c.07-.07.21-.07.32-.1.21.76-.46,1.24-.56,1.84a4.11,4.11,0,0,1-2.28,1.72l-.44.93c-.44.22-.54-.17-.76-.32,0-.15,0-.31.06-.38Q240.44,68.71,242.28,66.88ZM240,68.06c0,.11-2.48,3-2.45,3.1l-.29.45-.57-.23-.66.26c0-.19-.14-.37-.09-.46a3.8,3.8,0,0,0,.64-2.15c.58.2.54.66.63,1.07C237.25,70.34,239.9,67.82,240,68.06Zm3.14-16.88c-.16.14-3,2.54-3.81,3.15-.43.31,0,.87,0,.9s2-1.7,2-1.57a2.05,2.05,0,0,1-.44.9,16.23,16.23,0,0,0-1.57,1.57c0,.71-.05,1.91-.05,1.91-.18.21-.41.45-.6.72a2.42,2.42,0,0,0-.26.84,18.53,18.53,0,0,1-.9,2.63,1.78,1.78,0,0,0,0,.61c.63.06.91-.32,1.26-.88,0,.41.06.62.09.89-.79.46-1.4,1.18-2.24,1.29-.22.56.12.78.24,1.1,0,.41-.06.84-.09,1.33a3,3,0,0,1-.82-2,10.11,10.11,0,0,1,.08-3.29,7.42,7.42,0,0,0-.26-2.17c-.12-.26-1.12,1.19-1.15.93s.89-1.38.92-1.62a6.59,6.59,0,0,1,.66-1.88,10.57,10.57,0,0,1,2.08-3.16c-.08-.3.06-.16,0-.5.12,0,.23,0,.27,0,.34.35.49.43.82.77,0,0,3-2.38,4-3.15C243.5,50.4,243.5,50.86,243.12,51.18Zm4.64-2.27c.51.29,1.21.07,1.94.25l.5.47-1.93.29-.71-.55-1,.63a4,4,0,0,1-2.57-.39c.15-.28.52-.28.66-.81.37,0,.49.24.67.5l1.25-.21Zm0-4.2c-.14-.59-.27-1.19-.39-1.76l.17-.11.44.74Z"/><path class="cls-1" d="M254.51,41.39c0,.08.09.16.17.3a2.69,2.69,0,0,0,.43-.49,3.32,3.32,0,0,0,.33-2.05c-.1,0-.22,0-.26.1A3.17,3.17,0,0,0,254.51,41.39Z"/><path class="cls-1" d="M255.44,39.15h0v0l0,0A0,0,0,0,0,255.44,39.15Z"/><path class="cls-1" d="M245.92,37.35l.18.07C246.09,37.33,246.09,37.22,245.92,37.35Z"/><path class="cls-1" d="M254,34a3.63,3.63,0,0,1-2.58-.84c-.42-.29-.82-.07-1.12-.22-.06,0,1-.12.9-.45s-.44-.83-.45-.9c-.05-.25-.59.22-.67.22a8.22,8.22,0,0,0-.37,1.32c-.7,1.34-1.65,1.25-1.88,1.61a4.43,4.43,0,0,1-1.7.26c-.5-.11-.59-.84-.88-1.18l-.48.17c.08.23.16.43.25.67-.13.29-.29.63-.46,1,.32.34.66.7,1,1,.06.06.2,0,.35,0,.17-.24.36,0,.59-.37.79-.36,1.57-.93,2.67-1.44a11.73,11.73,0,0,1,1.79-.9,12.62,12.62,0,0,0,3,.75l.22-.21C254.45,34.31,254.35,34.13,254,34Z"/><path class="cls-1" d="M238.86,94.19c0,.28,0,.56.07.93L239,95c-.06-.26-.11-.53-.15-.8Z"/><path class="cls-1" d="M256,33.42c-.52-.55-1-.67-.66-.62a15.83,15.83,0,0,1-1.94-1.9c0-.23-.93-.39-.94-.88l.23,0c-.07-.73-.22-.64-1.07-1.28-.28-.85-.23-.93-1-1.06.37.8-.47.23-.88.07-.16.5-.39.66-1.13.77a.73.73,0,0,1-.61.95c.31.75.21.72.93.84l.92.19c.21,0,.18.69.23.9.63,0,.33-.05.67-.67,0,0,.88,1,1.86,2.3-.23,0,.83,1,.83.89A3.18,3.18,0,0,1,254,34a10.8,10.8,0,0,0,1.51-.35A2.05,2.05,0,0,0,256,33.42Z"/><path class="cls-1" d="M249.06,47.18a1.61,1.61,0,0,0-.21-1.51A1.91,1.91,0,0,0,249.06,47.18Z"/><path class="cls-1" d="M257.23,38.52a1,1,0,0,0,.09,1.26A1.06,1.06,0,0,0,257.23,38.52Z"/><path class="cls-1" d="M258.8,44.57l.49.47C259.31,44.49,259.31,44.49,258.8,44.57Z"/><path class="cls-1" d="M258.68,43.43a1.32,1.32,0,0,0-.48-1.1C258.06,42.75,258.2,43.07,258.68,43.43Z"/><path class="cls-1" d="M253.42,46a.57.57,0,0,0,0-.9A.57.57,0,0,0,253.42,46Z"/><path class="cls-1" d="M246.1,37.42a.08.08,0,0,0,0,.07h0l0,0Z"/><path class="cls-1" d="M256.27,40.87c-.4.8.19,1.44.26,2.22l.44-.35c-.11-.53-.22-1-.32-1.55Z"/><path class="cls-1" d="M256.8,32.94a6.38,6.38,0,0,0-.8.48,4.51,4.51,0,0,1,.35.44c-.19,0-.05,0-.11.14a1.07,1.07,0,0,1,.06.3c0,.06,0,.13,0,.2C257.46,34,257.05,33.22,256.8,32.94Z"/><path class="cls-1" d="M254,43.41a1.09,1.09,0,0,0,0,.33l.35.29a1.24,1.24,0,0,0,.37-.9l-.37-.32C254.15,43,254,43.21,254,43.41Z"/><path class="cls-1" d="M259.58,45.38l-.69.11c.05.36.55.46.36.9l-1.45.15c.25.17,1.71.21,1.88.32a6.83,6.83,0,0,1-1.2.48,11.09,11.09,0,0,1-1.18.06c-.19-.52-.36-1-.52-1.42.09-.28.18-.54.27-.8l-.42-1.33a1,1,0,0,0-.43,1.35,3,3,0,0,1,.24,1.11,1.12,1.12,0,0,1-.62,1.1,5.15,5.15,0,0,1-1.95-.07c.16-.37.49-.23.69-.34s.61-.1.76-.53H253l-.75.4a3.24,3.24,0,0,0,1.42,1.77,8.78,8.78,0,0,0,5.66,0,2.69,2.69,0,0,0,1.8-1.67c-.28-.25-1-.5-1.23-.68C259.76,45.91,259.68,45.67,259.58,45.38Z"/><path class="cls-1" d="M244.53,51.64l-.38-.09.33.15Z"/><path class="cls-1" d="M227.21,81.15l-.55.35c-4.43,4.57-6.62,6.77-11,11.33-.16.47-.42.82-.59,1.31l.75-.37c1.58-1.63,3.08-3.29,4.61-4.88a.72.72,0,0,0,.14-.22l-.28-.09c.86-.45,1-.29,1.44-.66,1.41-1.46,2.86-2.8,4.16-4.13,0-.23,0-.62,0-.86,1.38-1.09.37,0,1.28-.9s1.41-1.19,1.58-1.81l-.41.13C227.78,80.86,227.73,80.65,227.21,81.15Zm-.83,1c.8-.9,0-.12.85-1,0,0,0,.14.07.15C226.46,82.19,227.44,81.16,226.38,82.13Z"/><path class="cls-1" d="M263.52,45.84s0,0,0,0v0l.68,0,2.59-2.65c0-.24,0-.48.05-.91l-3.3,3.39S263.54,45.77,263.52,45.84Z"/><path class="cls-1" d="M212.59,95.93a9.88,9.88,0,0,0-2.11,2.25c.41.14,1.28-.83,1.62-.73a1.93,1.93,0,0,0,.43,0L213,97C213.11,96.4,213.24,96.27,212.59,95.93Z"/><path class="cls-1" d="M213.35,95.31c.42.11.81.15,1-.38l-.25-.31A.87.87,0,0,0,213.35,95.31Z"/><path class="cls-1" d="M263.52,45.84c-.12-.17-.34-.16-.58,0l.25.66c.2-.32.36-.49.36-.57h0A.13.13,0,0,0,263.52,45.84Z"/><path class="cls-1" d="M255.45,52.2c-1.51,1.59-3.06,3.2-4.58,4.84-.05.05,0,.15-.07.26l.28.12c.5-.28.82-.83,1.4-.9l.56.21,2.29-2.39c-.08-.38-.14-.69-.21-1l.68-.52C255.82,52.53,255.88,52.27,255.45,52.2Z"/><path class="cls-1" d="M256.68,51.07c-.28.47.13.86.14,1.29l-.5.22c-.26.59-.26.59.12.87l.53-.64c.46-.22.86-.41,1.25-.58a.38.38,0,0,0,.25-.42L257.3,51C257,50.93,256.83,50.91,256.68,51.07Z"/><path class="cls-1" d="M262.79,46.79c-.27.05-.53.12-.79.18a.49.49,0,0,0-.4.3c0,.18,0,.38,0,.58s.09.11.18.21c.37-.41.76-.77,1.14-1.2C262.83,46.81,262.81,46.78,262.79,46.79Z"/><path class="cls-1" d="M256.56,105.66l-17.13,0a2.39,2.39,0,0,0-.53.06c-.05,0-.1.11-.14.17a1.48,1.48,0,0,0,.24,1.14h2l.8-.71,10.9.11a4.08,4.08,0,0,1,.83.17,11.08,11.08,0,0,0,1.66.46,15,15,0,0,0,2.12,0c.05,0,.11-.13.17-.21v-1.17Z"/><path class="cls-1" d="M238.69,106.24a.82.82,0,0,0-.7-.49,30.29,30.29,0,0,0-5,0,.94.94,0,0,0-.45.16c-.11.07-.17.21-.31.39l1.29.77c1.5-.1,3,.08,4.41-.09Z"/><path class="cls-1" d="M247.52,108.34c-.49,0-1,0-1.48,0s-.89,0-1.34,0a4.86,4.86,0,0,0-1.43.08l-.1.52a10.33,10.33,0,0,0,2.87-.15l2.36.48.48-.73A2.28,2.28,0,0,0,247.52,108.34Z"/><path class="cls-1" d="M240.44,108.07a5.2,5.2,0,0,0-1.39.29l-.59-.21-.62.32c.09.13.13.24.21.28a1.4,1.4,0,0,0,.54.19c.69,0,1.38,0,2.06,0,.38,0,.79.11,1.13-.11a.55.55,0,0,0-.08-.75A10.85,10.85,0,0,1,240.44,108.07Z"/><path class="cls-1" d="M230.64,106.85l1.27-.73a1.67,1.67,0,0,0-1.32-.46A.79.79,0,0,0,230.64,106.85Z"/><path class="cls-1" d="M227.63,106.46l.67.4c.37-.58.37-.58.12-1.14C227.84,105.83,227.56,106,227.63,106.46Z"/><polygon class="cls-1" points="226.08 106.6 227.25 106.43 226.2 106.15 226.08 106.6"/><path class="cls-1" d="M24.43,71.53c-.13-.44,0-.19-.22-.44C24.07,70.34,23.64,71.86,24.43,71.53Z"/><path class="cls-1" d="M24.17,101.87l0-25.25c-.43-.43-.41-1-.64-1.78-.49,0,.2-1,.22-1.32-.74.16-.29-.59-.28-1,.21,0,.4-.09.5-1l-.42.11c.09-.26.35-.63,0-.55v.22h-.22a.8.8,0,0,1-.2.49l-.26.12c-.2,0-.84-.16-.66-.34-.47.46-2.73,2.49-3.17,2.93.16-.16-.06-.28,0,.21-.36.31-.18.06-.34.62-1.12.3,0,1.12-1.32,1.27,0-.33-.57-.14-.86-.26-.42.42-.28-.4-.46.29,0,.14.08.27,0,.46-.37-.09-.19.39-.44.17-.32.31-.25.42-.48.49s-.75.11-.63.61c-.19,0-.36-.24-.44-.22s-.08.47,0,.44-.52.5-.93.93-1,1-.91.71c-.4.08-.06-.23,0-.44-.41.15-.26-.31,0-.5.21.07.32.23.24-.16-.29,0,.1-.22.08-.38.44,0,.66-.33,1.11-.75.24-.22.36-.69.65-.43a1.3,1.3,0,0,1,.37-.6c.16-.16.29-.41.52-.29,1.25-1.25,2.48-2.26,3.53-3.31.25-.25.24-.93.66-.88,0,.66.32.1.22-.22s-.09,0-.22-.44H20c-.14-.55,1-1.37,1.33-1.55.16-.7.45-.72.88-1.1V69c.85.11-.24-.55.88-.67.26-.25,0-.08.45-.22,0-.63.47-1.52,0-2,.27-.07.74-25.43.22-25.4V39.58c.6,0,0-.75,0-.88.58.13-.37-.79.22-.66.05-.18-.15-.77.2-.67v-.7a2.16,2.16,0,0,1,0-.36V17.38l-4.69-4.14c-.34.34-1,.22-1.92-.33v-.66c-.62-.36-.76-.89-1.55-1.1-.16-.61-.06-.49-.66-.66.07-.6-.78-.09-.89,0,0-.71-.71-1.64-.52-2.12L4.49,0V26.78h.59v.44H4.64c.25.25,0,.09.44.22.09.49,0,.9.44.88.18.45-.31.71-.22.89.78-.09.22.23.22.88H5.08c1,.47.28,2.43.22,2.65.23,0,.23,0,.22.22-.72.11.17,1.61,0,1.76-.28-.14-.62.83-.22.67,0,.38,0,.8.44.88a.33.33,0,0,1-.22.44l.22.88c-.4-.2-.16,1-.22,1.11s.29.07.22.44c-.42-.22-.15,1.17-.22,1.32h.22V65.13c.21,0,.24,0,.22.22-.41-.19-.16.93-.22,1.1-.23,0-.24,0-.22-.22-.19-.42-.22.44-.22.44.91-.16,0,1.4,0,2H4.64c0,.37.32.32.44.66-.6,0-.48-.31-.59,0V87.61c-.07.17-.15.31-.52.25-.09.21-.16.77-.31.91C2.13,90.3,1.52,91.09,0,92.5c0,.5.64-.1.88-.22.13-.47,1.65.34,1.33-.88.9-.24.23-.19.66-.67.21.09.51.37.44,0,.14-.28.27.09.22-.22H3.31c0-.12-.14-.65.22-.44,0,0,0,.45.22.22A1.86,1.86,0,0,1,4.64,89c0,.77.4,1.06-.15,1.22v6.24h.59c0,.45-.22.76.44.67.05.17-.16.79.22.66.41.2-.44.22-.44.22-.17.46,0,1.28-.66,1.1-.06.24-.09.44-.15.6v10.9H9.35a5.32,5.32,0,0,1,2.79-.27c.31,0-.09-.24.22-.22v.22c.17.05.8-.15.67.22h.22c-.07-.6.84,0,.66,0,.7.11.51-.32.88-.22a.37.37,0,0,0,.31.28h.4c.5-.07,1.12-.32,1.28-.28v.22c.21,0,.25,0,.22-.22h.66c0-.23,0-.24.22-.22-.2.39.77.17.89.22v-.22c.24,0,.74.43.66,0h2.43s.5-.52.44,0H23c-.09.43.41,0,.66,0-.1.68.24.32.67.22v.28h.22a1.31,1.31,0,0,1,0-.28c.65,0,.75.46,1.1,0a1.52,1.52,0,0,0,.13.28H26a2.64,2.64,0,0,1,.48-.5c0,.37.12.23.2.51h.47v-.29c.19.11,3.69.1,3.77.29h.72c.31-.1.63-.17.77,0h.3c0-.15.17-.09.29,0h.37s0,0,0-.07c.15,0,.2,0,.22.07h.65a.37.37,0,0,0,.24-.51c.9.47.19.39,1.32.22a1.34,1.34,0,0,1-.15.29h.15v-.07a.51.51,0,0,1,.15.07h.3a.2.2,0,0,0,0-.07c.16,0,.2,0,.22.07h.12a.17.17,0,0,1,.11-.07,2,2,0,0,1,1.32.07h.64a.12.12,0,0,0,0-.07h.22l0,.07H58l-8.58-8.77Z"/><path class="cls-1" d="M291.3,16.87a29.5,29.5,0,0,0,5.93-.17c1.11-.27,2.64.69,3.55,0h.34v-.17H294a12.61,12.61,0,0,1-3.38-.16c.11-1.37,2.37-2.88,3.21-3.73.42-.42.67-1,1.19-1.35-.2-.42.09-.15-.34-.34a30.44,30.44,0,0,1-2.2,2.2l-1,.34a11.11,11.11,0,0,0-2.88,2.88h-.16a2.1,2.1,0,0,0,.33.67Z"/><path class="cls-1" d="M282.82,22.12v.34c1-.5,1.38-1.43,2.2-2a13,13,0,0,1,1.86-1.19l.85-.17.17-.33c1.48-.75,6.27-.39,8-.34v-.51c-1.66,0-3.49.13-4.91.17a4.33,4.33,0,0,1-2-.17h-2l-1,1.18C284.87,20.07,283.85,21.17,282.82,22.12Z"/><path class="cls-1" d="M281.49,23.58v.33l.51-.17.17-.33h-.34C281.64,23.57,281.82,23.47,281.49,23.58Z"/><path class="cls-1" d="M323.17,25l.49,0c.16-3.3.13-4.34-.16-5.05l-.29,0a6.61,6.61,0,0,0,.08,3.44A1.8,1.8,0,0,0,323.17,25Z"/><path class="cls-1" d="M323.72,30.62a6.92,6.92,0,0,0-.14-2.14l-.71.13a9.24,9.24,0,0,0,0,2.23v-.22Z"/><path class="cls-1" d="M323.19,26.34c-.15.82-.15.82.1,1.32.45-.46.45-.46.3-1.32Z"/><polygon class="cls-1" points="723.53 99.28 717.2 99.28 717.2 100.17 719.87 100.17 719.87 105.97 720.86 105.97 720.86 100.17 723.53 100.17 723.53 99.28"/><path class="cls-1" d="M729.9,99.28l-1.28,3.61-.73,2.11-.75-2.14-1.28-3.58h-1.5V106h1l0-3.18c0-.09,0-.24,0-.46s0-.46,0-.72l0-.77c0-.26,0-.46,0-.62s0,0,0,0a.05.05,0,0,1,0,0l.71,2.2,1.37,3.57h1l1.37-3.55.71-2.23s0,0,0,0,0,0,0,0,0,.27,0,.44,0,.34,0,.52,0,.36,0,.53,0,.34,0,.49,0,.28,0,.38v.22l0,3.19h1V99.28Z"/><path class="cls-1" d="M144.34,51.12l.24,0C144.79,50.62,144.51,50.77,144.34,51.12Z"/><path class="cls-1" d="M144.72,51.18l-.14,0c0,.08-.05.15-.1.26Z"/><path class="cls-1" d="M77.64,109.69c-.87-.1-.07.7-1.23.82-.46.68.22.2.77.44C77.91,110.23,79.13,109.57,77.64,109.69Z"/><path class="cls-1" d="M80.08,107.28c.12.55-.25.45-.67.44,0,.12.08.3,0,.36-.26.25-.25.26-.66.67.39.07.7,0,.63-.36.18,0,.36,0,.47-.12s.39-.3.66-.56a.51.51,0,0,0,.2-.43c.12,0,.21,0,.32-.13C81.81,106.39,80.64,107,80.08,107.28Z"/><path class="cls-1" d="M39.27,51.74c-.13.42-.06.33-.39.53C38.76,53.35,40.35,51.54,39.27,51.74Z"/><path class="cls-1" d="M204.27,104.37a1.39,1.39,0,0,0,0,.32h1.06c0-.71.28-.93.3-1.44a2.38,2.38,0,0,1-.47.17C204.92,103.72,204.6,104.05,204.27,104.37Z"/><path class="cls-1" d="M197.12,30.13c-.18.46-1.42-.2-2.2.18,0,.64-.93-.07-1.11,0v.22h-.66c0-.74-1.68.69-1.23-.4h-.41c-.25.16-.52.24-.58,0H175.27c.09.37-1.4.11-1.55.18.09.43-.42,0-.66,0-.13.35-.27.52-.66.44-.05.3-.35.36-.72.33.32-.5.52-.57,1.12-1,0,0,1.34-1.92,2.25-1.76-.19-1.56,1.44.2.88-1.55.7-.7,1.23-1,1.82-1.58.35-.31.18.41.22.44.36.08.21-.62.35-.86.42-.53.42-.54,1-1.2s1.24-2-.72,0a17,17,0,0,0-2.33,1.68c-2.33,1.92-3.48,2.8-4.65,4-.52.52-.5.22-.29.65-1.22-.45-.85.35-2,.66a.56.56,0,0,1,0,.22h-.46c0,.53-.36.06-.44-.22-.63-.14-.48.37-.66.45-.75,0-.68-.08-.66.66h-.66v-.22h.22c-.65-.65-.21-1,.55-1.29h-9v9.29c-.19.2-.89.95-.84.39-.85-.2-.21,1.32-.88,1.32-.15-.42.16-.25-.22-.44a2.53,2.53,0,0,1-1,.89c0-3.71-1.45-6.27-6-9-4.92-2.94-13.42-3.37-21.56-3.37l-3.27,0v1.06c-.43-.08,0,.42,0,.67-.22,0-.25,0-.22-.23-.3,0-1,.45-.89,0a2.2,2.2,0,0,0-.88-.44v-.88a1.43,1.43,0,0,1-.42-.12l-1.78.08c0,.21,0,.32-.45.26-.14.61-.29.5-.44,1.1h-1.77a.72.72,0,0,0-.09-.2l-4.15,4.1c0,.24,0,.44-.39.52l.22.66H113c-.46.69-.27.11-.89.44-.07.44-.45.48-.81.45l-.07.06c0,.15-.11.21-.25.25l-.4.39c0,.36-.19.5-.6.6l-.09.09c-.11.38-.22.7-.65.81.16.59-.41.52-.83.65l-5.83,5.76c0,.8-.06,1.64-.06,2.57v7c0,4.43,6.85,10.18,13.51,10.18h11.77a1.42,1.42,0,0,1,.65-.33v-.44c.44-.44.56.1.76-.1.47-.47.78-.79,1.06-1,.62.17.25-.91.83-.41l.48-.44c.44-.43,0-.62.34-1a4,4,0,0,1,1.17-1h.44c0-.07.65-.14.66-.2h-6.65c-3.2,0-7.93-3.26-7.93-7.2V43.06A7.12,7.12,0,0,1,122,37.44c1.56-1.45,2.56-2.74,7-2.74,5.37,0,5.7,1.15,7.26,2.23a5.35,5.35,0,0,1,2.31,4.64c.09,0,.1-.06.09-.22h.88v.22c.31-.18.61,1.3.22,1.1,0,.22,0,.25.22.23v.66h.22c0,.22,0,.24-.22.22v.32c-.39-.06-.06.23,0,.45-.53-.12-.12,1-.66.88v.22c.53,0,.06.44,0,.44v1.33c-.37.08-.57-.15-.72-.44v9.81l3.14-2.66a1.9,1.9,0,0,0,.16-.65c.45-.13-.32.59.22.1.12-.19.27-.22.48-.48.14-.61.23,0,.72-.48l1-1a1,1,0,0,1,.1-.54l-.27,0c.43.09,0-.41,0-.66.45-.05.75.22.66-.44.18.05.8-.16.67.22-.31.09-.06.06,0,.12s0-.07,0-.12c.36.14.18-.49.22-.66a1.47,1.47,0,0,0,1.07.41l8.51-6.73a.27.27,0,0,0,0-.08l0,0,.15,0v-.54a.58.58,0,0,0,.29-.08c.11-.48.45-.48.88-.44.06-.47.24-.27.22-.66.43,0,.77,0,.88-.44.18-.06.65.47,1.11.22-.21-.39.85-.15.44-.44-.05-.31-.21.09-.22-.22,1.15,0-.18-.42,0-.89.86-.06.24-.23-.29-.24.05-.06,0-.18-.15-.42,1.17.53.29-.26.88-.22a1.63,1.63,0,0,0,.44-.88,1.73,1.73,0,0,0,.89-.22c0,.2,0,.24.22.22.05.16,0,.33.73.07.49-.58.28-.46,1.3-.67v-.67c.49.38.17,0,.43.67H163l-.48.67h-.38c1.17,1.44-1.45.66-1.4,2.14-.85-.08-.85,1.46-2,1.54a1.59,1.59,0,0,1-.49.83V53h5.7v-6c0-.26.89-6.84,7.36-6.84S178.57,47,178.57,47V67a3.18,3.18,0,0,1,1.08.21c0,.25-.42.75,0,.66v-.22c.35-.25.21.55.23.66-.89.63-.34,1.18-.67,2.43H179c-.08.37.21.4.22.44a.6.6,0,0,1-.22.67c.17.42.34.75-.22.88a.7.7,0,0,0-.2.44c0,.77,0,.77,0,1.45,0,.27-.26.46-.39.39v.21c.36-.11.51.43.56.6a.37.37,0,0,0-.2,0V76a2.89,2.89,0,0,0,.42.3,6.13,6.13,0,0,1-.42,2.18V97.26c0,9.33-7.82,8.89-7.82,8.89v.62H182.4v-.08c.38-.31.41-.53.88-.44a1.06,1.06,0,0,1,1.32-.66c-.26,1,1.6.1,1.33,1.1l.66-.22a.34.34,0,0,0,.16.3h16.87v-.62s-1.36.19-1-.22,1-.93,1.62-1.56c-.05-.68.43-.8.93-.94.57-.61,1-1.09.72-1.13s-4.38,3.58-4.74,3.46a6.76,6.76,0,0,1-1.62-.8c-1.7-1.15-3.76-3.37-3.76-7.7V80.67a2,2,0,0,1-.28-1.32c.12-.11.13.07.27,0s0-1,0-1.18l-.64.52v.22c.54.06-.43.65-.88.66-.36.52.26.23-.22.67s-1.17,1.11-1.45,1.44.29.36-.1.76a.53.53,0,0,0-.76.17c-.1.17.19.29-.41.87-.22-.06-.19-.21-.42,0a39.33,39.33,0,0,0-3.2,3.28c-.25-.21-.33-.19-.62,0-.45.26-1.19,1.08-1.32,1s0-.36.14-.52c.47-.55,1.46-1.5,2.58-2.77.17-.19-.06-.35.1-.54s0-.2.16-.38.6-.45.67-.74c.69.19.4.44.88-.22.26-.25,1.32-1.43,1.9-2a1.21,1.21,0,0,1,.4-.2c.11,0,0-.18-.11-.37.12,0,.26-.33.39-.4s0,.14.16,0c1.39-1.55,3.87-4.45,4.76-5.29-1-1.46.59-1.1.66-2.65-1.09.27-1.11,1-1.76,1.33-.65.18-.36,1.24-1.11,1.1,0-.21,0-.23.2-.22V57.24h-.2c.07.73,0,.69-.66.45,0,0,0,.47-.22.22v-.44c-.92-.91.75-2.3,0-3.1.52.1-.07-.53.44-.44.1-.37-.21-.39-.22-.44a.37.37,0,0,1,.22-.44c.07-.44-.61-.27-.44-.88.88-.26.55-1.17.44-1.77-1.39.13.28-2.1-.88-1.54v-.22c-.27-.25-.09,0-.22-.45.33-.19.23-.71.66-.66-.52-.59.52-.51,0-1.1,1,.08.65-.11.88-.89.29,0,.27.07.38.14a7.12,7.12,0,0,1,7.11-5.6c6.47,0,7.36,6.58,7.36,6.84v6h3.49c.3-1,1.12-1.13,1.29-2.33.17,0,.79.16.66-.22.25-.25.09,0,.22-.44h0V30.13Zm-38.85,9.23Zm5.21-2.89c.29-.23.6-.86.85-.37C163.58,36.58,164.09,36.39,163.48,36.47Zm30.8,21.66v.22c-.38.13-.17-.49-.22-.66C194.33,57.75,194.8,58.15,194.28,58.13Z"/><path class="cls-1" d="M195.6,52.61c0-.48,0-.46-.44-.44.19.25,0,0,.22.22C195.36,52.61,195.38,52.63,195.6,52.61Z"/><path class="cls-1" d="M198.92,70.93c-.24,1.15,1.6-.83.66-.88A1,1,0,0,1,198.92,70.93Z"/><path class="cls-1" d="M81.53,106.4c.51.16.06.13.75,0C82.17,105.92,81.84,106.26,81.53,106.4Z"/><path class="cls-1" d="M121.4,70.49c-.14-.44,0-.19-.22-.44C121.19,70.27,121.09,70.57,121.4,70.49Z"/><path class="cls-1" d="M122.06,70.05c.13-.44,0-.19.22-.44C122.06,68.71,120.61,70.36,122.06,70.05Z"/><path class="cls-1" d="M119.85,71.59c.44.14.19,0,.44.22a1.16,1.16,0,0,0,.44-.88c.4.06.51,0,.45-.44C120.42,70.64,120.28,71.13,119.85,71.59Z"/><path class="cls-1" d="M145.48,50.39l0,.07C145.57,50.44,145.54,50.48,145.48,50.39Z"/><path class="cls-1" d="M145.44,50.32l0,.07A.06.06,0,0,0,145.44,50.32Z"/><path class="cls-1" d="M110.8,103.85v0h-.06Z"/><path class="cls-1" d="M119.85,72.48c0-.11-.1-.12-.13-.09a.49.49,0,0,1,.07.11Z"/><path class="cls-1" d="M119.85,72.7a.33.33,0,0,0-.06-.2l-.08,0A.27.27,0,0,0,119.85,72.7Z"/><path class="cls-1" d="M78.37,38.14c0,.19-.13.53.23.44C78.57,38.39,78.73,38.05,78.37,38.14Z"/><path class="cls-1" d="M141.57,60.13h-5.16c0,.27-.09-.07-.22.21-.14.52-.07.41-.44.66.25.41-1,.24-1.76.23-.69.68-.46.44-1.11,1.09-.21-.06-.51-.39-.44,0,.25.25.08,0,.22.44H132V63c-.35.36-.41.2-.88.67,0,.74-1,1.19-1.43,1.19s-.06.26-.49.26c3.18,0,7.61,3.25,7.61,7.73v.31c0,.06,0,.15,0,.22.38.19.44.92.88.88-.07.22-.14.44-.22.66.09.17.29,0,.22.45,0,0-.28.06-.22.44.35-.09.19.24.22.44-.31,0,.09-.17-.22-.22-.19-.42-.22.44-.22.44l.44.22c0,.28-.06,1-.44.88-.33.66.2,1.94-.49,2V88c0,2.66-.78,4.52-2.33,5.56a12.87,12.87,0,0,1-6.76,2,11.06,11.06,0,0,1-6.26-2c-1.56-1-2.34-2.9-2.34-5.56,0,0-.07-10.13-.07-15a2.06,2.06,0,0,1,.67-.51c0-.06,0-.13,0-.15a.77.77,0,0,0-.09-.13c.31.07.21-.22.22-.45-.6.71-2.06,1.17-2.21,2-1.16.12-.87.67-1.54,1.33-.72-.21-.52.35-.88.44-.45.57-.11-.24-.35.5l-.2-.09a1.18,1.18,0,0,0-.81.65l-.88.83v.14c-.77.33-.2.34-.37,1.27-.74.21-.42.27-.88.66v.22c-.65-.09-.39.2-.44.66a2.14,2.14,0,0,0-.84.2c.09-.4.21-1.27-.17-1v-.22l0,0-7.65,6.53c-.39,0-.43-.49-.41.22,0,0-.85,0-.44.23-.12,0-.42.39-.79.85l-1.69,1.34s0,.1,0,.16a1.34,1.34,0,0,1-.18.07c-.17.6-.91.63-1.55.79-.17.6-.32.5-.47,1.11-.12,0-.72-.14-.47.22,0,0,.49,0,.23.22-.23,0-.54-.09-.46.22-.22.13-.85,0-.71.44s.21-.09.24.22a6.5,6.5,0,0,1-1.11.17,2.15,2.15,0,0,1,.36-1c.17-.16.39,0,.5-.17s0-.27,0-.38.14-.25.14-.2V55.83a.45.45,0,0,1,0-.28v-.18h-.34c0-.21,0-.25-.23-.22,0,.22,0,.24-.24.22.07-.16-.18-1.06.24-.89.34-.47-.67-.9,0-.88.07-.8.09-2,.57-2.5V39c-.35-.11-.66-.16-.81.07v-.44c-.62.15-.81-.51-1.17-.88,0,0,.43-.31.24-.66-.52,0-.24.39-.94.44-.16-.65-.26-.72-.93-.88,0-.94-.22-.9,0-1.55h-.24c-.26.25,0,.09-.47.22v-.44c-.3-.15-.3-.34-.46-.44s-.56.12-.47-.22c.23,0,.26,0,.23-.23h-.7c0,.21,0,.25-.23.23V33.5c-.42.07-.07-.22,0-.44,1.12.5.61-.09.33-.57-.18-.08-.37-.17-.56-.24a.47.47,0,0,1,0,.37c-.25.19-.2-.18-.23-.22l-.23-.22c.12,0,.18,0,.21,0-3.37-1.31-11-2.57-18.61-2.57a64.29,64.29,0,0,0-8.23.47L46.79,44.7a.33.33,0,0,0,0-.15c-.29,0-.33.22-.37.5l-.34.31c-.61-.13-.35.29-.69,1-1.26.28-.78.92-1.68,1.14.17,1-2.08,1.61-1.74,2.14-.24.4-.72,0-1,.9h-.39c-.21.69-.58.56-.77,1.25.34,0,.45-.05.38-.36.79-.2.42-.43,1.35-.54.15-.48.05-.4.58-.53-.14-.52,1.21-1,1.36-1.43h.57c0-1,1.57-.05,1-1.07.56-.13.4,0,.56-.61h.19c-.08,1.3-.13,2.74-.13,4.38v2.8c0,2.16,0,4.33,0,6.5a.07.07,0,0,0,0,.06c0,.08.2.12.27.21a1.4,1.4,0,0,1,.13.41c.48.4.4.43.23.89,1-.06.26.27,0,.44,0,.21,0,.24.24.22v1.32c-.46-.08,0,.42,0,.67,0-.17-.24.2-.25.25,0,.21,0,.42,0,.63h-.24a10.91,10.91,0,0,0,0,1.4,1.18,1.18,0,0,1,0,.42s-.24.29-.24.18c0,.14.07.36,0,.49s-.18.26-.18.17V87a22.08,22.08,0,0,0,.7,6c.09,0,.16.06.18.2h.23c-.07-.39.24-.06.47,0,0-.23,0-.23.23-.22,0,.16,0,.35.06.46a4.33,4.33,0,0,0,.61.3,2.11,2.11,0,0,1,.76,1,4.93,4.93,0,0,1,.21.94c0,.25.06,1,.33,1.09a1.83,1.83,0,0,1,.9.69c.07.11.5.87.64.83.75-.18-.58.89.24.89v.66c.2,0,.23.22.21.47l.43.35c4.55,3.49,8.73,5.32,19.12,5.32,5.48,0,9.46-.38,12.6-1.33L86,102.35a.85.85,0,0,1-.12-.38c.75-.07.57-.09.94-.44,0,0,0,0,.07,0l.17-.16c0-.09,0-.21,0-.27a1,1,0,0,0,.18.11l5.88-5.48c0-.41.39-.49.41-.79a2.09,2.09,0,0,0,.22-.2c.05,0,.08,0,.1-.09.08-.39.79-.26.94-.45s.17-.36.31-.52.32-.3.48-.45A2.68,2.68,0,0,0,96.38,92c.83.11,1.36-1,2.28-1a8.09,8.09,0,0,1,.66-1c.32,5,2.39,7.89,6.21,10.81a24.46,24.46,0,0,0,5.08,3c0-.13.17-.43.19-.61-.22,0-.24,0-.22-.22H111v-.44c-.7,0-.41.43-.66-.22h.88c.42.64,1,.32.88,1.1.37.16.8.92,1.11.44.26.4.4.85.88.44,0,.45.77.28,1.11.45,0,1.37,1.5-.18,1.76.88.16.06,1.06-.18.88.22h.23c0-.48,1,.2,1.32.22,0-.42.17-.18.22-.66a6.8,6.8,0,0,0,1.1-.44c0,.2,0,.24.23.22V106c-.24.14-.33.23-.36.3a54.18,54.18,0,0,0,6.66.39,49.93,49.93,0,0,0,14-1.78l13.4-13.22a12.48,12.48,0,0,0,.65-3.88H155c-.09-.44.34-.13.23-.66H155c0-.22,0-.24.23-.22.2-.37-.32-.19-.45-.22-.15-1-.23.92-.66.34h-.22c.23-.47.24-.21,0-.89.77-.54.05-.78,1.1-1.1,0-.25-.42-.75,0-.66,0-.25.15-.22.38-.15V69.94C155.33,65.39,148.78,60.13,141.57,60.13ZM81.17,73.48c-.35-.09-.2.24-.23.44-.23,0-.26,0-.23.22.42.18.16.84-.31,1.16V88.85q0,4.55-2.55,6.34a11.57,11.57,0,0,1-13.71,0q-2.56-1.8-2.56-6.34V44.56q0-4.55,2.56-6.4a11.31,11.31,0,0,1,13.62-.06c.29-.12.93,0,1.54-.18,0,0,0,.45.24.22.1-1.18,1.38.29,1.17,1.11-.73-.08-1,.11-.24.44.12.31-.42.32-.47.44-.26.73.38.56,0,1.3a11.4,11.4,0,0,1,.39,3.13V64.68c.07,0,.1,0,.07.18.87.46-.32,1.22.7,1.11-.23.57-.93,3.11-.46,4.2.09.22.51,0,.46.66-.51-.07-.1.53,0,.44,0,.83-.38.59,0,1.33C80.54,72.58,81.41,73,81.17,73.48Zm3.39,28.69a.58.58,0,0,0-.64-.58v-1C84.32,101,85.84,102.41,84.56,102.17Zm.67,0c.28,0,.71-.1.62.24C85.38,102.28,85.6,102.54,85.23,102.17Zm26.61-1-.15-1.08c.6.52.69.16,1,1.08Z"/></g></g></svg>